<?xml version="1.0" encoding="utf-8"?>
<!-- Generator: Adobe Illustrator 22.1.0, SVG Export Plug-In . SVG Version: 6.00 Build 0)  -->
<svg version="1.1" id="katman_1" xmlns="http://www.w3.org/2000/svg" xmlns:xlink="http://www.w3.org/1999/xlink" x="0px" y="0px"
	 viewBox="0 0 253.5 112.7" enable-background="new 0 0 253.5 112.7" xml:space="preserve">
<path fill="#00BBB4" d="M146.1,58.4c-0.3,0.2-0.7,0.4-1,0.6c-2.8,1.7-5.7,2.8-9,3c-3.4,0.2-6.5-0.9-9.3-2.7
	c-5.3-3.4-8.5-8.3-9.8-14.4c-1.6-7.4-1-14.7,2-21.7c1.6-3.7,3.8-7.1,6.5-10.1c3.2-3.7,7-6.8,11.2-9.2c1.4-0.8,2.9-1.4,4.4-2.1
	c0.2-0.1,0.6-0.1,0.8,0c5.4,1.7,10.3,4.3,14.7,8.1c0.6,0.5,1.1,1,1.8,1.5c-1,0.1-1.8,0.2-2.6,0.3c-7.1,1-13.7,3.1-19.5,7.5
	c-6,4.5-9.6,10.6-10.7,18c-0.5,3.5,0,7,1.7,10.1c1.8,3.2,4.6,4.9,8.2,5.4c1.8,0.3,3.7,0.3,5.5-0.3c4.3-1.4,6.4-5.8,4.8-10
	c-1.3-3.4-3.9-5.1-7.3-5.8c-2.2-0.4-4.4-0.3-6.5,0.1c-0.5,0.1-0.7,0-0.5-0.5c1.4-4.7,4-8.5,8.5-10.8c3-1.5,6.2-1.9,9.5-1.6
	c5.1,0.4,9.1,3,12.4,6.9c3.4,4.1,5.7,8.7,6.6,14c0.8,4.4,0.5,8.7-0.8,13c-1.1,3.4-3,6.3-5.2,9.1c-3.8,4.9-8.5,8.7-14,11.4
	c-4.2,2.1-8.7,3.5-13.4,4c-11,1.2-21-1.3-29.8-8C96,67.4,90.7,58.5,88.9,47.6c-0.3-2.2-0.5-4.5-0.5-6.8c0.2-10,3.4-18.8,9.9-26.4
	c4.9-5.8,11-9.8,18.1-12.3c1.2-0.4,2.5-0.7,3.8-1c-0.9,0.7-1.8,1.4-2.7,2.2c-4.2,3.6-7.7,7.7-10.3,12.6c-2,3.7-3.4,7.6-3.9,11.8
	c-0.4,3.2-0.4,6.5,0.1,9.7c0.5,4,1.7,7.8,3.5,11.5c2.1,4.4,5,8.2,8.7,11.4c3.2,2.7,6.7,4.7,10.8,5.6c5,1.1,9.8,0.8,14.4-1.6
	c2.2-1.2,4-2.9,5.1-5.2C146,58.8,146.1,58.7,146.1,58.4C146.1,58.5,146.1,58.4,146.1,58.4"/>
<g>
	<path fill="#00BBB4" d="M44.4,94.8h3.5v8.1c0,0.8,0,1.5,0.1,2c0.1,0.5,0.2,1,0.4,1.3c0.2,0.3,0.4,0.6,0.7,0.7
		c0.3,0.1,0.7,0.2,1.1,0.2c0.5,0,0.8-0.1,1.2-0.2c0.3-0.1,0.5-0.4,0.7-0.7c0.2-0.3,0.3-0.8,0.4-1.3c0.1-0.5,0.1-1.2,0.1-2v-8.1H56
		v8.8c0,1.1-0.1,2-0.3,2.8c-0.2,0.8-0.5,1.5-0.9,2.1c-0.4,0.6-1,1-1.8,1.3c-0.8,0.3-1.7,0.5-2.8,0.5c-1.1,0-2.1-0.1-2.8-0.5
		c-0.7-0.3-1.3-0.7-1.8-1.3c-0.4-0.6-0.7-1.3-0.9-2.1c-0.2-0.8-0.3-1.8-0.3-2.8V94.8z"/>
	<path fill="#00BBB4" d="M105.5,94.9c0.7-0.1,1.3-0.2,1.9-0.2c0.6,0,1.2-0.1,1.8-0.1c0.8,0,1.6,0.1,2.3,0.2c0.8,0.2,1.5,0.4,2.1,0.8
		c0.6,0.4,1.1,0.9,1.5,1.5c0.4,0.6,0.6,1.4,0.6,2.4c0,0.6-0.1,1.1-0.2,1.5c-0.1,0.4-0.3,0.8-0.6,1.2c-0.2,0.3-0.5,0.6-0.7,0.9
		c-0.3,0.3-0.5,0.5-0.8,0.6l-0.1,0.1c0.4,0.6,0.7,1.2,1,1.6c0.3,0.5,0.6,1,0.9,1.5c0.3,0.5,0.6,1,0.9,1.5c0.3,0.5,0.5,0.8,0.7,1.2
		c0.2,0.3,0.3,0.5,0.3,0.5h-3.9l-4-7v7h-3.6V94.9z M109,102.9l0.8-0.3c0.2-0.1,0.4-0.2,0.7-0.3c0.3-0.1,0.5-0.3,0.7-0.5
		c0.2-0.2,0.5-0.5,0.6-0.7c0.2-0.3,0.3-0.6,0.3-1c0-0.4-0.1-0.8-0.2-1.1c-0.1-0.3-0.3-0.5-0.5-0.7c-0.2-0.2-0.5-0.3-0.8-0.4
		c-0.3-0.1-0.6-0.1-1-0.1c-0.1,0-0.2,0-0.2,0c-0.1,0-0.2,0-0.3,0V102.9z"/>
	<path fill="#00BBB4" d="M68.1,102.4c-0.3-0.3-0.7-0.6-1.1-0.9c-0.5-0.2-0.9-0.5-1.5-0.7l-1.3-0.5c-0.2-0.1-0.4-0.1-0.6-0.2
		c-0.2-0.1-0.3-0.2-0.5-0.3c-0.1-0.1-0.3-0.2-0.3-0.4c-0.1-0.2-0.1-0.4-0.1-0.6c0-0.3,0.1-0.5,0.2-0.7c0.1-0.2,0.3-0.3,0.4-0.4
		c0.2-0.1,0.4-0.2,0.6-0.2c0.2,0,0.4-0.1,0.6-0.1c1,0,2,0.2,2.9,0.6l1.3-2.6c-0.9-0.3-1.6-0.5-2.2-0.6c-0.7-0.1-1.3-0.2-2-0.2
		c-0.8,0-1.5,0.1-2.2,0.3c-0.7,0.2-1.2,0.5-1.7,0.9c-0.5,0.4-0.8,0.9-1.1,1.4c-0.2,0.6-0.4,1.2-0.4,1.9c0,0.6,0.1,1.1,0.2,1.5
		c0.2,0.4,0.4,0.8,0.7,1.1c0.3,0.3,0.6,0.6,1,0.8c0.4,0.2,0.8,0.4,1.3,0.6l1.3,0.5c0.2,0.1,0.5,0.2,0.7,0.3c0.2,0.1,0.4,0.2,0.6,0.3
		c0.2,0.1,0.3,0.3,0.4,0.5c0.1,0.2,0.1,0.5,0.1,0.7c-0.1,0.6-0.3,1-0.7,1.2c-0.4,0.2-1,0.3-1.8,0.3c-0.6,0-1.2-0.1-1.7-0.2
		c-0.6-0.1-1.1-0.3-1.7-0.4l-0.7,3c0.4,0.2,0.8,0.3,1.1,0.4c0.3,0.1,0.7,0.2,1,0.3c0.3,0.1,0.7,0.1,1.1,0.1c0.4,0,0.8,0,1.2,0
		c1,0,1.8-0.1,2.5-0.3c0.7-0.2,1.4-0.6,1.9-1c0.5-0.4,0.9-0.9,1.1-1.5c0.3-0.6,0.4-1.3,0.4-2c0-0.7-0.1-1.3-0.3-1.8
		C68.6,103.1,68.4,102.7,68.1,102.4z"/>
	<polygon fill="#00BBB4" points="38,94.8 38,103.5 32.8,94.8 28.2,94.8 28.2,97.4 30,97.4 30,110 33.3,110 33.3,101.3 38.5,110 
		41.3,110 41.3,94.8 	"/>
	<path fill="#00BBB4" d="M17.2,94.8h-5.6c-0.1,0.4-0.3,0.7-0.4,1c-0.1,0.3-0.3,0.6-0.4,1c-0.2,0.4-0.3,0.8-0.5,1.1
		c-0.4,0.9-0.9,2-1.4,3.1l-2.8-6.3H2.2c0.9,1.8,1.7,3.5,2.4,4.9c0.3,0.6,0.6,1.2,0.9,1.8c0.3,0.6,0.5,1.1,0.8,1.6
		c0.2,0.5,0.5,1,0.7,1.5v5.5h3.5v-5.5l3.4-6.9h1.3L17.2,94.8z"/>
	<path fill="#00BBB4" d="M122.7,103.6h4.3v-3h-4.3c0,0,0-2.7,0-2.7h4.7l2.2-3l0,0h-10.3V110h9.1v-3h-5.6V103.6z"/>
	<path fill="#00BBB4" d="M78.9,103.6h4.3v-3h-4.3c0,0,0-2.7,0-2.7h4.9l2.2-3H75.5V110h9v-3h-5.6V103.6z"/>
	<path fill="#00BBB4" d="M98.3,94.8c-0.3,0.8-2.9,7.1-3.2,7.9l-3.2-7.9h-4.2l-2.2,3h2.2V110h3.3v-8.9l2.8,5.8h2.6l2.6-5.8v8.9h3.5
		V94.8H98.3z"/>
	<path fill="#00BBB4" d="M23.5,102.9c0,0.8,0,1.5-0.1,2c-0.1,0.5-0.2,1-0.4,1.3c-0.2,0.3-0.4,0.6-0.7,0.7c-0.3,0.1-0.7,0.2-1.2,0.2
		c-0.5,0-0.8-0.1-1.1-0.2c-0.3-0.1-0.5-0.4-0.7-0.7c-0.2-0.3-0.3-0.8-0.4-1.3c-0.1-0.6-0.1-1.2-0.1-2v-3.7v-0.9l0-3.6l-3.5,4.7v4
		c0,1.1,0.1,2,0.3,2.8c0.2,0.8,0.5,1.5,0.9,2.1c0.4,0.6,1,1,1.8,1.3c0.7,0.3,1.7,0.5,2.8,0.5c1.2,0,2.1-0.1,2.9-0.5
		c0.7-0.3,1.3-0.8,1.8-1.3c0.4-0.6,0.8-1.3,0.9-2.1c0.2-0.8,0.3-1.8,0.3-2.8v-4.3v-0.9v-3.6h-3.5V102.9z"/>
	<g>
		<path fill="#00BBB4" d="M172,102.3c-0.3-0.3-0.7-0.6-1.1-0.8c-0.4-0.2-0.9-0.5-1.5-0.7l-1.2-0.5c-0.2-0.1-0.4-0.1-0.6-0.2
			c-0.2-0.1-0.3-0.2-0.5-0.3c-0.1-0.1-0.3-0.2-0.4-0.4c-0.1-0.2-0.1-0.4-0.1-0.6c0-0.3,0.1-0.5,0.2-0.7c0.1-0.2,0.3-0.3,0.4-0.4
			c0.2-0.1,0.4-0.2,0.6-0.2c0.2,0,0.4-0.1,0.6-0.1c1,0,2,0.2,2.9,0.6l1.3-2.6c-0.9-0.3-1.6-0.5-2.3-0.6c-0.7-0.1-1.3-0.2-2-0.2
			c-0.8,0-1.5,0.1-2.1,0.3c-0.7,0.2-1.2,0.5-1.7,0.9c-0.5,0.4-0.8,0.8-1.1,1.4c-0.3,0.6-0.4,1.2-0.4,1.9c0,0.6,0.1,1.1,0.2,1.5
			c0.1,0.4,0.4,0.8,0.7,1.1c0.3,0.3,0.6,0.6,1,0.8c0.4,0.2,0.8,0.4,1.3,0.6l1.3,0.5c0.2,0.1,0.4,0.2,0.7,0.3
			c0.2,0.1,0.4,0.2,0.6,0.3c0.2,0.1,0.3,0.3,0.4,0.5c0.1,0.2,0.1,0.4,0.1,0.7c-0.1,0.6-0.3,1-0.7,1.2c-0.4,0.2-1,0.3-1.8,0.3
			c-0.6,0-1.1-0.1-1.7-0.2c-0.6-0.1-1.1-0.3-1.7-0.4l-0.7,3c0.4,0.2,0.8,0.3,1.1,0.4c0.3,0.1,0.7,0.2,1,0.3c0.3,0.1,0.7,0.1,1.1,0.1
			c0.4,0,0.8,0,1.2,0c0.9,0,1.8-0.1,2.5-0.3c0.7-0.2,1.3-0.6,1.8-1c0.5-0.4,0.9-0.9,1.1-1.5c0.3-0.6,0.4-1.2,0.4-2
			c0-0.7-0.1-1.3-0.2-1.8C172.6,103,172.3,102.6,172,102.3z"/>
		<path fill="#00BBB4" d="M235,102.3c-0.3-0.3-0.7-0.6-1.1-0.8c-0.4-0.2-0.9-0.5-1.5-0.7l-1.3-0.5c-0.2-0.1-0.4-0.1-0.5-0.2
			c-0.2-0.1-0.3-0.2-0.5-0.3c-0.1-0.1-0.3-0.2-0.3-0.4c-0.1-0.2-0.1-0.4-0.1-0.6c0-0.3,0.1-0.5,0.2-0.7c0.1-0.2,0.3-0.3,0.4-0.4
			c0.2-0.1,0.4-0.2,0.6-0.2c0.2,0,0.4-0.1,0.6-0.1c1,0,2,0.2,2.9,0.6l1.3-2.6c-0.9-0.3-1.6-0.5-2.2-0.6c-0.7-0.1-1.3-0.2-2-0.2
			c-0.8,0-1.5,0.1-2.2,0.3c-0.6,0.2-1.2,0.5-1.7,0.9c-0.5,0.4-0.8,0.8-1.1,1.4c-0.3,0.6-0.4,1.2-0.4,1.9c0,0.6,0.1,1.1,0.2,1.5
			c0.2,0.4,0.4,0.8,0.7,1.1c0.3,0.3,0.6,0.6,1,0.8c0.4,0.2,0.8,0.4,1.3,0.6l1.2,0.5c0.2,0.1,0.4,0.2,0.7,0.3
			c0.2,0.1,0.4,0.2,0.6,0.3c0.2,0.1,0.3,0.3,0.4,0.5c0.1,0.2,0.1,0.4,0.1,0.7c-0.1,0.6-0.3,1-0.7,1.2c-0.4,0.2-1,0.3-1.8,0.3
			c-0.6,0-1.1-0.1-1.7-0.2c-0.6-0.1-1.1-0.3-1.7-0.4l-0.7,3c0.4,0.2,0.8,0.3,1.1,0.4c0.3,0.1,0.7,0.2,1,0.3c0.3,0.1,0.7,0.1,1.1,0.1
			c0.4,0,0.8,0,1.2,0c0.9,0,1.8-0.1,2.5-0.3c0.7-0.2,1.4-0.6,1.8-1c0.5-0.4,0.9-0.9,1.1-1.5c0.3-0.6,0.4-1.2,0.4-2
			c0-0.7-0.1-1.3-0.3-1.8C235.5,103,235.3,102.6,235,102.3z"/>
		<polygon fill="#00BBB4" points="176.1,94.8 176.1,97.8 179.9,97.8 179.9,109.9 183.5,109.9 183.5,97.8 187.3,97.8 187.3,94.8 		
			"/>
		<polygon fill="#00BBB4" points="196.9,94.8 196.9,97.8 200.8,97.8 200.8,109.9 204.3,109.9 204.3,97.8 208.1,97.8 208.1,94.8 		
			"/>
		<polygon fill="#00BBB4" points="193.8,94.8 190.4,94.8 190.4,99.5 		"/>
		<polygon fill="#00BBB4" points="190.4,102.2 190.4,109.9 193.8,109.9 193.8,97.5 		"/>
		<polygon fill="#00BBB4" points="156.3,94.8 156.3,103.4 151.2,94.8 148.3,94.8 146.1,97.8 148.3,97.8 148.3,109.9 151.6,109.9 
			151.6,101.2 156.8,109.9 159.6,109.9 159.6,94.8 		"/>
		<path fill="#00BBB4" d="M139.7,103.5h4.3v-3h-4.3c0,0,0-2.6,0-2.7h4.8l2.2-3h-10.4v15.1h9v-3h-5.6V103.5z"/>
		<g>
			<polygon fill="#00BBB4" points="211.2,98.3 211.2,99.2 211.2,99.6 214.7,94.8 211.2,94.8 			"/>
			<polygon fill="#00BBB4" points="222.7,94.8 219.3,94.8 219.3,98.3 219.3,99.2 219.3,99.6 			"/>
			<path fill="#00BBB4" d="M219.3,102.3L219.3,102.3v0.5c0,0.8,0,1.5-0.1,2c-0.1,0.5-0.2,1-0.4,1.3c-0.2,0.3-0.4,0.6-0.7,0.7
				c-0.3,0.1-0.7,0.2-1.1,0.2c-0.5,0-0.8-0.1-1.1-0.2c-0.3-0.1-0.5-0.4-0.7-0.7c-0.2-0.3-0.3-0.8-0.4-1.3c-0.1-0.5-0.1-1.2-0.1-2
				v-3.7v-0.8l0-0.7l-3.5,4.7v1.2c0,1,0.1,2,0.3,2.8c0.2,0.8,0.5,1.5,0.9,2.1c0.4,0.6,1,1,1.8,1.3c0.7,0.3,1.7,0.4,2.8,0.4
				c1.1,0,2.1-0.1,2.8-0.4c0.7-0.3,1.3-0.7,1.8-1.3c0.4-0.6,0.7-1.3,0.9-2.1c0.2-0.8,0.3-1.7,0.3-2.8v-4.3v-0.8v-0.7L219.3,102.3
				L219.3,102.3z"/>
		</g>
		<g>
			<polygon fill="#00BBB4" points="239.1,98.3 239.1,99.2 239.1,99.6 242.5,94.8 239.1,94.8 			"/>
			<polygon fill="#00BBB4" points="250.6,94.8 247.1,94.8 247.1,98.3 247.1,99.2 247.1,99.6 			"/>
			<path fill="#00BBB4" d="M247.1,102.3L247.1,102.3l0,0.5c0,0.8,0,1.5-0.1,2c-0.1,0.5-0.2,1-0.4,1.3c-0.2,0.3-0.4,0.6-0.7,0.7
				c-0.3,0.1-0.7,0.2-1.1,0.2c-0.4,0-0.8-0.1-1.1-0.2c-0.3-0.1-0.5-0.4-0.7-0.7c-0.2-0.3-0.3-0.8-0.4-1.3c-0.1-0.5-0.1-1.2-0.1-2
				v-3.7v-0.8l0-0.7l-3.5,4.7v1.2c0,1,0.1,2,0.3,2.8c0.2,0.8,0.5,1.5,0.9,2.1c0.4,0.6,1,1,1.8,1.3c0.7,0.3,1.7,0.4,2.8,0.4
				c1.1,0,2.1-0.1,2.8-0.4c0.7-0.3,1.3-0.7,1.8-1.3c0.4-0.6,0.7-1.3,0.9-2.1c0.2-0.8,0.3-1.7,0.3-2.8v-4.3v-0.8v-0.7L247.1,102.3
				L247.1,102.3z"/>
		</g>
	</g>
</g>
</svg>
